<svg xmlns="http://www.w3.org/2000/svg" xmlns:xlink="http://www.w3.org/1999/xlink" version="1.1" width="256" height="256" viewBox="0 0 256 256" xml:space="preserve">
<desc>Created with Fabric.js 1.7.22</desc>
<defs>
</defs>
<g transform="translate(128 128) scale(0.72 0.72)" style="">
	<g style="stroke: none; stroke-width: 0; stroke-dasharray: none; stroke-linecap: butt; stroke-linejoin: miter; stroke-miterlimit: 10; fill: none; fill-rule: nonzero; opacity: 1;" transform="translate(-175.05 -175.05000000000004) scale(3.89 3.89)" >
	<path d="M 57.119 48.903 l -4.312 -0.727 c -1.186 -0.199 -2.047 -1.124 -2.047 -2.222 l -0.017 -0.692 c 0.17 -0.167 0.334 -0.341 0.493 -0.518 h 5.287 c 1.611 0 2.922 -1.311 2.922 -2.923 V 29.846 c 0 -6.997 -6.528 -12.69 -14.552 -12.69 c -8.024 0 -14.553 5.693 -14.553 12.69 v 11.977 c 0 1.612 1.311 2.923 2.923 2.923 h 5.268 c 0.165 0.183 0.335 0.363 0.512 0.535 l -0.017 0.699 c 0 1.074 -0.861 1.999 -2.047 2.198 l -4.312 0.727 c -2.755 0.465 -4.755 2.702 -4.755 5.319 v 18.2 c 0 0.553 0.448 1 1 1 h 31.96 c 0.553 0 1 -0.447 1 -1 v -18.2 C 61.874 51.605 59.874 49.368 57.119 48.903 z M 46.01 45.932 c -0.362 0.131 -0.741 0.197 -1.125 0.197 s -0.762 -0.066 -1.125 -0.197 c -3.41 -1.232 -5.809 -4.363 -6.109 -7.953 l -0.306 -5.061 c 1.151 -3.003 3.742 -2.799 7.838 -2.208 c 2.485 0.359 5.029 0.709 7.21 -0.096 l -0.274 7.351 C 51.813 41.574 49.417 44.701 46.01 45.932 z M 33.264 42.745 c -0.509 0 -0.923 -0.414 -0.923 -0.923 V 29.846 c 0 -5.895 5.631 -10.69 12.553 -10.69 s 12.552 4.795 12.552 10.69 v 11.977 c 0 0.509 -0.413 0.923 -0.922 0.923 h -3.843 c 0.792 -1.396 1.293 -2.967 1.432 -4.623 c 0.001 -0.008 -0.003 -0.015 -0.003 -0.023 c 0 -0.008 0.005 -0.015 0.006 -0.024 l 0.34 -9.122 c 0.002 -0.046 -0.017 -0.087 -0.021 -0.132 c -0.007 -0.072 -0.012 -0.142 -0.035 -0.212 c -0.021 -0.066 -0.056 -0.122 -0.09 -0.181 c -0.024 -0.042 -0.033 -0.088 -0.064 -0.128 c -0.009 -0.012 -0.024 -0.017 -0.034 -0.029 c -0.045 -0.053 -0.102 -0.092 -0.157 -0.135 c -0.049 -0.037 -0.093 -0.079 -0.146 -0.107 c -0.051 -0.026 -0.109 -0.037 -0.165 -0.054 c -0.07 -0.021 -0.137 -0.045 -0.21 -0.051 c -0.014 -0.001 -0.026 -0.009 -0.04 -0.01 c -0.044 -0.002 -0.084 0.017 -0.127 0.021 c -0.075 0.007 -0.148 0.013 -0.22 0.037 c -0.057 0.019 -0.104 0.05 -0.156 0.078 c -0.049 0.027 -0.103 0.039 -0.149 0.075 c -1.804 1.407 -4.508 1.016 -7.373 0.602 c -3.919 -0.566 -8.359 -1.208 -10.079 3.689 c 0 0 0 0.001 -0.001 0.001 c 0 0 0 0.001 0 0.001 c -0.046 0.131 -0.063 0.265 -0.054 0.396 l 0.321 5.305 c 0.138 1.655 0.639 3.226 1.431 4.623 H 33.264 z M 40.949 46.774 c 0.665 0.415 1.377 0.766 2.132 1.039 c 0.582 0.21 1.188 0.316 1.804 0.316 c 0.616 0 1.224 -0.106 1.805 -0.316 c 0.762 -0.275 1.481 -0.63 2.151 -1.05 c 0.232 1.161 0.973 2.159 2.012 2.781 l -5.968 6.106 l -5.96 -6.098 C 39.971 48.93 40.718 47.93 40.949 46.774 z M 59.874 71.423 h -6.372 v -6.449 c 0 -0.553 -0.447 -1 -1 -1 s -1 0.447 -1 1 v 6.449 H 38.286 v -6.449 c 0 -0.553 -0.448 -1 -1 -1 s -1 0.447 -1 1 v 6.449 h -6.372 v -17.2 c 0 -1.638 1.298 -3.045 3.087 -3.347 l 3.796 -0.64 l 7.373 7.543 c 0.188 0.192 0.446 0.301 0.715 0.301 s 0.527 -0.108 0.715 -0.301 l 7.375 -7.546 l 3.812 0.642 c 1.789 0.302 3.087 1.709 3.087 3.347 V 71.423 z" style="stroke: none; stroke-width: 1; stroke-dasharray: none; stroke-linecap: butt; stroke-linejoin: miter; stroke-miterlimit: 10; fill: rgb(0,0,0); fill-rule: nonzero; opacity: 1;" transform=" matrix(1 0 0 1 0 0) " stroke-linecap="round" />
	<path d="M 85.741 44.307 l -3.766 -0.634 c -0.975 -0.164 -1.683 -0.919 -1.683 -1.819 l -0.013 -0.551 c 1.664 -1.648 2.739 -3.861 2.941 -6.276 c 0 -0.003 -0.001 -0.005 -0.001 -0.008 c 0 -0.004 0.003 -0.007 0.003 -0.011 l 0.281 -4.367 c 1.602 -2.475 2.119 -4.71 1.519 -6.645 c -0.54 -1.737 -1.966 -3.194 -4.247 -4.344 c 0.14 -0.075 0.303 -0.156 0.492 -0.243 c 0.367 -0.168 0.597 -0.541 0.582 -0.944 c -0.014 -0.403 -0.27 -0.758 -0.647 -0.9 c -4.461 -1.677 -10.14 -1.468 -12.964 2.688 c -1.498 0.601 -2.59 1.711 -3.093 3.156 c -0.712 2.049 -0.195 4.606 1.438 7.221 l 0.266 4.398 c 0.203 2.423 1.284 4.643 2.957 6.293 l -0.013 0.558 c 0 0.876 -0.708 1.631 -1.683 1.795 l -3.766 0.634 c -1.473 0.248 -2.758 1.08 -3.525 2.283 c -0.297 0.466 -0.161 1.084 0.305 1.381 c 0.167 0.106 0.353 0.157 0.537 0.157 c 0.33 0 0.653 -0.163 0.844 -0.462 c 0.465 -0.728 1.256 -1.232 2.172 -1.387 l 3.25 -0.547 l 6.393 6.54 c 0.188 0.192 0.445 0.301 0.715 0.301 s 0.527 -0.108 0.715 -0.301 l 6.395 -6.542 l 3.264 0.55 C 86.91 46.532 88 47.709 88 49.078 v 14.896 h -5.312 v -5.507 c 0 -0.553 -0.447 -1 -1 -1 s -1 0.447 -1 1 v 5.507 h -11.29 v -5.507 c 0 -0.553 -0.447 -1 -1 -1 s -1 0.447 -1 1 v 5.507 h -2.393 c -0.553 0 -1 0.447 -1 1 s 0.447 1 1 1 H 89 c 0.553 0 1 -0.447 1 -1 V 49.078 C 90 46.729 88.209 44.722 85.741 44.307 z M 67.035 24.064 c 0.337 -0.969 1.091 -1.675 2.181 -2.042 c 0.221 -0.075 0.408 -0.224 0.531 -0.421 c 1.339 -2.163 3.699 -3.025 6.208 -3.025 c 0.846 0 1.709 0.099 2.555 0.278 c -0.246 0.275 -0.4 0.562 -0.475 0.871 c -0.115 0.484 0.142 0.979 0.604 1.162 c 2.514 0.995 4.019 2.24 4.473 3.703 c 0.231 0.748 0.201 1.596 -0.089 2.539 c -0.063 -0.079 -0.131 -0.151 -0.206 -0.218 c -0.362 -0.319 -0.835 -0.443 -1.307 -0.356 c -1.575 0.246 -3.314 0.365 -5.331 -0.406 c -2.368 -0.992 -5.352 -1.964 -7.415 -0.679 c -0.687 0.428 -1.21 1.051 -1.576 1.88 C 66.77 26.118 66.712 24.994 67.035 24.064 z M 68.569 30.337 c 0.105 -1.649 0.526 -2.718 1.255 -3.172 c 1.297 -0.808 3.81 0.084 5.613 0.839 c 2.331 0.892 4.353 0.814 6.069 0.572 c 0.046 0.256 0.073 0.748 0.018 1.686 c 0 0 0 0.001 0 0.001 l -0.296 4.605 c -0.263 3.103 -2.323 5.792 -5.253 6.85 c -0.301 0.109 -0.617 0.164 -0.939 0.164 s -0.639 -0.055 -0.939 -0.164 c -2.932 -1.06 -4.994 -3.751 -5.253 -6.834 L 68.569 30.337 z M 75.035 50.142 l -5.008 -5.123 c 0.829 -0.537 1.424 -1.342 1.652 -2.273 c 0.549 0.331 1.121 0.63 1.737 0.853 c 0.52 0.188 1.064 0.283 1.619 0.283 s 1.1 -0.095 1.619 -0.283 c 0.623 -0.225 1.2 -0.528 1.754 -0.863 c 0.229 0.935 0.819 1.74 1.642 2.277 L 75.035 50.142 z" style="stroke: none; stroke-width: 1; stroke-dasharray: none; stroke-linecap: butt; stroke-linejoin: miter; stroke-miterlimit: 10; fill: rgb(0,0,0); fill-rule: nonzero; opacity: 1;" transform=" matrix(1 0 0 1 0 0) " stroke-linecap="round" />
	<path d="M 28.876 47.971 c 0.466 -0.297 0.602 -0.915 0.305 -1.381 c -0.768 -1.203 -2.053 -2.035 -3.526 -2.283 l -3.766 -0.634 c -0.975 -0.164 -1.683 -0.919 -1.683 -1.819 l -0.013 -0.551 c 1.665 -1.648 2.74 -3.861 2.942 -6.276 c 0 -0.003 -0.001 -0.006 -0.001 -0.01 c 0 -0.004 0.002 -0.006 0.003 -0.01 l 0.281 -4.367 c 1.601 -2.475 2.119 -4.711 1.518 -6.645 c -0.54 -1.737 -1.965 -3.194 -4.247 -4.344 c 0.14 -0.075 0.303 -0.156 0.493 -0.243 c 0.367 -0.168 0.596 -0.541 0.582 -0.944 c -0.015 -0.403 -0.27 -0.758 -0.647 -0.9 c -4.464 -1.677 -10.141 -1.468 -12.964 2.688 c -1.499 0.601 -2.59 1.71 -3.093 3.156 c -0.713 2.049 -0.195 4.605 1.437 7.221 l 0.266 4.398 c 0.203 2.423 1.284 4.644 2.958 6.293 l -0.014 0.558 c 0 0.876 -0.708 1.631 -1.682 1.795 l -3.766 0.634 C 1.791 44.722 0 46.729 0 49.078 v 15.896 c 0 0.553 0.448 1 1 1 h 24.524 c 0.552 0 1 -0.447 1 -1 s -0.448 -1 -1 -1 h -2.922 v -5.507 c 0 -0.553 -0.448 -1 -1 -1 s -1 0.447 -1 1 v 5.507 H 9.312 v -5.507 c 0 -0.553 -0.448 -1 -1 -1 s -1 0.447 -1 1 v 5.507 H 2 V 49.078 c 0 -1.369 1.089 -2.546 2.591 -2.799 l 3.25 -0.547 l 6.393 6.54 c 0.188 0.192 0.446 0.301 0.715 0.301 s 0.527 -0.108 0.715 -0.301 l 6.396 -6.542 l 3.264 0.55 c 0.916 0.154 1.708 0.659 2.172 1.387 c 0.191 0.299 0.514 0.462 0.844 0.462 C 28.523 48.128 28.71 48.077 28.876 47.971 z M 6.949 24.064 c 0.337 -0.969 1.091 -1.675 2.181 -2.042 c 0.221 -0.074 0.408 -0.224 0.531 -0.421 c 1.339 -2.163 3.7 -3.025 6.208 -3.025 c 0.846 0 1.709 0.098 2.555 0.278 c -0.246 0.275 -0.401 0.562 -0.474 0.871 c -0.115 0.484 0.143 0.979 0.604 1.162 c 2.513 0.995 4.018 2.24 4.472 3.703 c 0.232 0.748 0.202 1.596 -0.089 2.539 c -0.062 -0.079 -0.13 -0.151 -0.206 -0.218 c -0.363 -0.32 -0.837 -0.442 -1.306 -0.356 c -1.576 0.246 -3.315 0.365 -5.331 -0.406 c -2.37 -0.992 -5.355 -1.965 -7.415 -0.679 c -0.687 0.428 -1.21 1.051 -1.577 1.881 C 6.683 26.118 6.625 24.994 6.949 24.064 z M 8.482 30.337 c 0.105 -1.649 0.526 -2.718 1.255 -3.172 c 1.298 -0.809 3.809 0.083 5.613 0.839 c 2.33 0.892 4.351 0.814 6.07 0.572 c 0.045 0.256 0.073 0.747 0.018 1.686 c 0 0 0 0.001 0 0.001 l -0.296 4.599 c -0.261 3.105 -2.322 5.796 -5.253 6.855 c 0 0 -0.001 0 -0.001 0 c -0.301 0.109 -0.617 0.164 -0.939 0.164 c -0.322 0 -0.638 -0.055 -0.939 -0.164 c -2.932 -1.06 -4.994 -3.751 -5.252 -6.834 L 8.482 30.337 z M 14.949 50.142 l -5.008 -5.123 c 0.828 -0.537 1.423 -1.342 1.651 -2.273 c 0.549 0.331 1.121 0.63 1.737 0.853 c 0.52 0.188 1.065 0.283 1.619 0.283 c 0.555 0 1.1 -0.095 1.62 -0.283 c 0.623 -0.225 1.2 -0.528 1.754 -0.863 c 0.228 0.935 0.819 1.74 1.642 2.277 L 14.949 50.142 z" style="stroke: none; stroke-width: 1; stroke-dasharray: none; stroke-linecap: butt; stroke-linejoin: miter; stroke-miterlimit: 10; fill: rgb(0,0,0); fill-rule: nonzero; opacity: 1;" transform=" matrix(1 0 0 1 0 0) " stroke-linecap="round" />
</g>
</g>
</svg>