<svg width="13009" height="9989" viewBox="0 0 13009 9989" fill="none" xmlns="http://www.w3.org/2000/svg">
<g clip-path="url(#clip0_2_37)">
<path d="M2467.99 2144.4C2878.32 2144.4 3210.97 1776.47 3210.97 1322.59C3210.97 868.723 2878.32 500.788 2467.99 500.788C2057.65 500.788 1725.01 868.723 1725.01 1322.59C1725.01 1776.47 2057.65 2144.4 2467.99 2144.4Z" fill="#FF0000" fill-opacity="0.5"/>
<path d="M6082.86 4405.93C6082.86 6345.03 5040.68 7022.09 3755.07 7022.09C2469.47 7022.09 1427.28 6345.03 1427.28 4405.93C1427.28 2466.83 3755.07 0 3755.07 0C3755.07 0 6082.86 2466.83 6082.86 4405.93Z" fill="#F2F2F2"/>
<path d="M3670.26 6725.47L3694.11 5102.62L4686.26 3094.92L3697.85 4848.04L3708.56 4118.34L4392.36 2665.8L3711.39 3925.24L3730.66 2612.84L4462.89 1456.43L3733.71 2406.47L3745.74 0L3670.05 3185.73L3676.28 3054.31L2931.82 1793.9L3664.34 3306.59L3594.98 4772.31L3592.91 4733.41L2734.68 3407.02L3590.31 4870.85L3581.64 5054.15L3580.08 5056.91L3580.79 5071.96L3404.81 8790.62H3639.94L3668.15 6869.85L4521.67 5409.6L3670.26 6725.47Z" fill="#3F3D56"/>
<path d="M13009 5200.12C13009 6787.37 12155.9 7341.57 11103.6 7341.57C10051.3 7341.57 9198.19 6787.37 9198.19 5200.12C9198.19 3612.88 11103.6 1593.66 11103.6 1593.66C11103.6 1593.66 13009 3612.88 13009 5200.12Z" fill="#F2F2F2"/>
<path d="M11034.2 7098.77L11053.7 5770.4L11865.8 4127.01L11056.7 5562.01L11065.5 4964.72L11625.2 3775.74L11067.8 4806.65L11083.6 3732.4L11683 2785.82L11086.1 3563.48L11096 1593.66L11034 4201.33L11039.1 4093.76L10429.7 3062.05L11029.3 4300.27L10972.5 5500.03L10970.9 5468.18L10268.4 4382.46L10968.7 5580.68L10961.6 5730.72L10960.4 5732.98L10960.9 5745.3L10816.9 8789.19H11009.3L11032.4 7216.96L11731.1 6021.68L11034.2 7098.77Z" fill="#3F3D56"/>
<path d="M6438.28 9097.82C9994.05 9097.82 12876.6 8936.65 12876.6 8737.84C12876.6 8539.03 9994.05 8377.86 6438.28 8377.86C2882.52 8377.86 0 8539.03 0 8737.84C0 8936.65 2882.52 9097.82 6438.28 9097.82Z" fill="#3F3D56"/>
<path d="M10360.4 9394.25C10969.5 9394.25 11463.2 9366.65 11463.2 9332.59C11463.2 9298.54 10969.5 9270.94 10360.4 9270.94C9751.42 9270.94 9257.71 9298.54 9257.71 9332.59C9257.71 9366.65 9751.42 9394.25 10360.4 9394.25Z" fill="#3F3D56"/>
<path d="M6370.1 9989C6979.12 9989 7472.83 9961.39 7472.83 9927.34C7472.83 9893.29 6979.12 9865.69 6370.1 9865.69C5761.08 9865.69 5267.38 9893.29 5267.38 9927.34C5267.38 9961.39 5761.08 9989 6370.1 9989Z" fill="#3F3D56"/>
<path d="M3342.75 9569.54C4734.14 9569.54 5862.08 9506.47 5862.08 9428.67C5862.08 9350.88 4734.14 9287.81 3342.75 9287.81C1951.37 9287.81 823.426 9350.88 823.426 9428.67C823.426 9506.47 1951.37 9569.54 3342.75 9569.54Z" fill="#3F3D56"/>
<path d="M1127.05 8285.73C1633.56 8285.73 2044.17 7831.56 2044.17 7271.32C2044.17 6711.07 1633.56 6256.9 1127.05 6256.9C620.543 6256.9 209.938 6711.07 209.938 7271.32C209.938 7831.56 620.543 8285.73 1127.05 8285.73Z" fill="#2F2E41"/>
<path d="M979.267 8065.57L700.669 8061.94L694.787 8614.05L973.385 8617.68L979.267 8065.57Z" fill="#2F2E41"/>
<path d="M1536.46 8072.83L1257.86 8069.2L1251.98 8621.31L1530.57 8624.94L1536.46 8072.83Z" fill="#2F2E41"/>
<path d="M1159.04 8626.52C1159.61 8573.34 1056.12 8528.87 927.903 8527.2C799.682 8525.52 695.279 8567.28 694.712 8620.47C694.146 8673.65 797.63 8718.12 925.851 8719.79C1054.07 8721.46 1158.48 8679.7 1159.04 8626.52Z" fill="#2F2E41"/>
<path d="M1716.39 8620.94C1716.95 8567.76 1613.47 8523.29 1485.25 8521.62C1357.03 8519.94 1252.62 8561.7 1252.06 8614.89C1251.49 8668.07 1354.98 8712.54 1483.2 8714.21C1611.42 8715.88 1715.82 8674.12 1716.39 8620.94Z" fill="#2F2E41"/>
<path d="M1152.99 7361.52C1326.1 7361.52 1466.44 7206.3 1466.44 7014.82C1466.44 6823.34 1326.1 6668.12 1152.99 6668.12C979.882 6668.12 839.548 6823.34 839.548 7014.82C839.548 7206.3 979.882 7361.52 1152.99 7361.52Z" fill="white"/>
<path d="M1152.99 7130.39C1210.69 7130.39 1257.47 7078.65 1257.47 7014.82C1257.47 6950.99 1210.69 6899.25 1152.99 6899.25C1095.29 6899.25 1048.51 6950.99 1048.51 7014.82C1048.51 7078.65 1095.29 7130.39 1152.99 7130.39Z" fill="#3F3D56"/>
<path d="M247.529 6316.4C177.389 5948.63 418.038 5581.08 785.034 5495.45C1152.03 5409.82 1506.4 5638.53 1576.54 6006.3C1646.68 6374.07 1402.65 6506.19 1035.66 6591.82C668.663 6677.45 317.67 6684.17 247.529 6316.4Z" fill="#0000FE" fill-opacity="0.9"/>
<path d="M2526.04 7837.23C2526.04 8544.45 2145.96 8791.38 1677.07 8791.38C1666.2 8791.38 1655.36 8791.24 1644.53 8790.98C1622.81 8790.46 1601.29 8789.32 1580.03 8787.72C1156.86 8754.59 828.097 8494.96 828.097 7837.23C828.097 7156.57 1614.48 6297.68 1673.55 6234.11L1673.65 6234C1675.93 6231.54 1677.07 6230.34 1677.07 6230.34C1677.07 6230.34 2526.04 7130.02 2526.04 7837.23Z" fill="#0000FE" fill-opacity="0.9"/>
<path d="M1646.14 8683.19L1956.65 8203.28L1645.36 8735.88L1644.54 8790.98C1622.81 8790.46 1601.29 8789.32 1580.03 8787.72L1613.5 8080.16L1613.24 8074.67L1613.81 8073.64L1616.97 8006.81L1304.91 7472.9L1617.95 7956.69L1618.67 7970.88L1643.97 7436.28L1376.8 6884.57L1647.22 7342.45L1673.55 6234.11L1673.66 6230.34V6234L1669.26 7107.99L1935.23 6761.51L1668.17 7183.28L1661.14 7661.93L1909.47 7202.56L1660.1 7732.36L1656.17 7998.46L2016.7 7359.1L1654.83 8091.32L1646.14 8683.19Z" fill="#3F3D56"/>
<path d="M8271.26 8274.76C8777.77 8274.76 9188.37 7820.59 9188.37 7260.34C9188.37 6700.1 8777.77 6245.93 8271.26 6245.93C7764.75 6245.93 7354.15 6700.1 7354.15 7260.34C7354.15 7820.59 7764.75 8274.76 8271.26 8274.76Z" fill="#2F2E41"/>
<path d="M8349.55 8066.61L8083.22 8157.14L8229.87 8684.93L8496.19 8594.39L8349.55 8066.61Z" fill="#2F2E41"/>
<path d="M8882.18 7885.6L8615.86 7976.13L8762.5 8503.92L9028.82 8413.39L8882.18 7885.6Z" fill="#2F2E41"/>
<path d="M8479.09 8707.68C8601.67 8666.01 8689.58 8591.02 8675.45 8540.18C8661.33 8489.34 8550.51 8481.9 8427.94 8523.56C8305.37 8565.23 8217.45 8640.22 8231.58 8691.06C8245.71 8741.9 8356.52 8749.34 8479.09 8707.68Z" fill="#2F2E41"/>
<path d="M9008.33 8514.34C9130.9 8472.67 9218.81 8397.68 9204.69 8346.84C9190.56 8296 9079.74 8288.56 8957.17 8330.23C8834.6 8371.89 8746.69 8446.88 8760.81 8497.73C8774.94 8548.57 8885.75 8556 9008.33 8514.34Z" fill="#2F2E41"/>
<path d="M8225.25 7354.01C8398.36 7354.01 8538.7 7198.79 8538.7 7007.31C8538.7 6815.83 8398.36 6660.61 8225.25 6660.61C8052.14 6660.61 7911.81 6815.83 7911.81 7007.31C7911.81 7198.79 8052.14 7354.01 8225.25 7354.01Z" fill="white"/>
<path d="M8225.25 7122.88C8282.96 7122.88 8329.74 7071.14 8329.74 7007.31C8329.74 6943.48 8282.96 6891.74 8225.25 6891.74C8167.55 6891.74 8120.77 6943.48 8120.77 7007.31C8120.77 7071.14 8167.55 7122.88 8225.25 7122.88Z" fill="#3F3D56"/>
<path d="M7170.34 6647.65C7002.13 6321.07 7129.95 5889.85 7455.85 5684.48C7781.74 5479.12 8182.3 5577.38 8350.51 5903.96C8518.72 6230.55 8322.75 6438.7 7996.86 6644.06C7670.96 6849.43 7338.55 6974.24 7170.34 6647.65Z" fill="#0000FE" fill-opacity="0.9"/>
<path d="M6635.63 7707.73C6635.63 8356.92 6286.74 8583.59 5856.32 8583.59C5846.35 8583.59 5836.39 8583.47 5826.45 8583.22C5806.51 8582.75 5786.76 8581.7 5767.24 8580.23C5378.8 8549.82 5077 8311.49 5077 7707.73C5077 7082.91 5798.87 6294.49 5853.09 6236.14L5853.19 6236.03C5855.28 6233.78 5856.32 6232.67 5856.32 6232.67C5856.32 6232.67 6635.63 7058.54 6635.63 7707.73Z" fill="#0000FE" fill-opacity="0.9"/>
<path d="M5827.94 8484.27L6112.97 8043.74L5827.22 8532.64L5826.47 8583.22C5806.52 8582.75 5786.77 8581.7 5767.26 8580.23L5797.98 7930.72L5797.74 7925.68L5798.26 7924.73L5801.16 7863.39L5514.7 7373.28L5802.06 7817.39L5802.73 7830.41L5825.94 7339.67L5580.7 6833.23L5828.93 7253.54L5853.1 6236.14L5853.2 6232.67V6236.03L5849.16 7038.32L6093.31 6720.26L5848.16 7107.43L5841.71 7546.81L6069.67 7125.13L5840.76 7611.46L5837.15 7855.72L6168.09 7268.82L5835.91 7940.96L5827.94 8484.27Z" fill="#3F3D56"/>
<path d="M9700.42 7978.48C9700.42 8685.69 9320.34 8932.63 8851.45 8932.63C8840.59 8932.63 8829.74 8932.49 8818.92 8932.23C8797.19 8931.71 8775.67 8930.57 8754.41 8928.96C8331.25 8895.84 8002.48 8636.2 8002.48 7978.48C8002.48 7297.81 8788.86 6438.93 8847.93 6375.36L8848.04 6375.25C8850.31 6372.79 8851.45 6371.59 8851.45 6371.59C8851.45 6371.59 9700.42 7271.27 9700.42 7978.48Z" fill="#0000FE" fill-opacity="0.9"/>
<path d="M8820.53 8824.44L9131.03 8344.53L8819.75 8877.13L8818.92 8932.22C8797.2 8931.71 8775.68 8930.57 8754.42 8928.96L8787.89 8221.41L8787.63 8215.91L8788.2 8214.88L8791.35 8148.06L8479.29 7614.14L8792.33 8097.94L8793.06 8112.13L8818.35 7577.53L8551.19 7025.82L8821.61 7483.7L8847.94 6375.36L8848.04 6371.59V6375.25L8843.65 7249.24L9109.62 6902.76L8842.56 7324.53L8835.53 7803.18L9083.86 7343.81L8834.49 7873.61L8830.56 8139.71L9191.09 7500.35L8829.22 8232.56L8820.53 8824.44Z" fill="#3F3D56"/>
<path d="M8329.52 7867.6C8363.59 7788.14 8205.71 7626.42 7976.89 7506.38C7748.07 7386.34 7534.95 7353.44 7500.88 7432.89C7466.81 7512.35 7624.69 7674.07 7853.51 7794.11C8082.34 7914.15 8295.45 7947.05 8329.52 7867.6Z" fill="#2F2E41"/>
<path d="M1270.93 7774.74C1300.51 7693.12 1133.92 7542.46 898.848 7438.24C663.773 7334.02 449.229 7315.71 419.65 7397.34C390.071 7478.96 556.658 7629.62 791.732 7733.84C1026.81 7838.06 1241.35 7856.37 1270.93 7774.74Z" fill="#2F2E41"/>
</g>
<defs>
<clipPath id="clip0_2_37">
<rect width="13009" height="9989" fill="white"/>
</clipPath>
</defs>
</svg>
