<svg width="512" height="512" viewBox="0 0 512 512" fill="none" xmlns="http://www.w3.org/2000/svg">
<g clip-path="url(#clip0)">
<path d="M490.667 469.333V202.667C490.667 198.4 488.128 194.539 484.203 192.853L334.869 128.853C331.563 127.424 327.787 127.765 324.8 129.749C321.792 131.733 320 135.083 320 138.667V469.333H298.667V16.0001C298.667 10.7308 296.085 5.80275 291.755 2.81608C287.403 -0.170582 281.899 -0.831916 276.971 1.04542L52.9707 86.3788C46.7627 88.7468 42.6667 94.6988 42.6667 101.333V469.333H21.3333C9.55733 469.333 0 478.869 0 490.667C0 502.464 9.55733 512 21.3333 512H490.667C502.443 512 512 502.464 512 490.667C512 478.869 502.443 469.333 490.667 469.333ZM426.667 272C426.667 263.168 433.835 256 442.667 256C451.499 256 458.667 263.168 458.667 272V304C458.667 312.832 451.499 320 442.667 320C433.835 320 426.667 312.832 426.667 304V272ZM426.667 400C426.667 391.168 433.835 384 442.667 384C451.499 384 458.667 391.168 458.667 400V432C458.667 440.832 451.499 448 442.667 448C433.835 448 426.667 440.832 426.667 432V400ZM352 272C352 263.168 359.168 256 368 256C376.832 256 384 263.168 384 272V304C384 312.832 376.832 320 368 320C359.168 320 352 312.832 352 304V272ZM352 400C352 391.168 359.168 384 368 384C376.832 384 384 391.168 384 400V432C384 440.832 376.832 448 368 448C359.168 448 352 440.832 352 432V400ZM202.667 144C202.667 135.168 209.835 128 218.667 128C227.499 128 234.667 135.168 234.667 144V176C234.667 184.832 227.499 192 218.667 192C209.835 192 202.667 184.832 202.667 176V144ZM202.667 272C202.667 263.168 209.835 256 218.667 256C227.499 256 234.667 263.168 234.667 272V304C234.667 312.832 227.499 320 218.667 320C209.835 320 202.667 312.832 202.667 304V272ZM202.667 400C202.667 391.168 209.835 384 218.667 384C227.499 384 234.667 391.168 234.667 400V432C234.667 440.832 227.499 448 218.667 448C209.835 448 202.667 440.832 202.667 432V400ZM106.667 144C106.667 135.168 113.835 128 122.667 128C131.499 128 138.667 135.168 138.667 144V176C138.667 184.832 131.499 192 122.667 192C113.835 192 106.667 184.832 106.667 176V144ZM106.667 272C106.667 263.168 113.835 256 122.667 256C131.499 256 138.667 263.168 138.667 272V304C138.667 312.832 131.499 320 122.667 320C113.835 320 106.667 312.832 106.667 304V272ZM106.667 400C106.667 391.168 113.835 384 122.667 384C131.499 384 138.667 391.168 138.667 400V432C138.667 440.832 131.499 448 122.667 448C113.835 448 106.667 440.832 106.667 432V400Z" fill="#EE7838"/>
</g>
<defs>
<clipPath id="clip0">
<rect width="512" height="512" fill="white"/>
</clipPath>
</defs>
</svg>
