<svg width="512" height="462" viewBox="0 0 512 462" fill="none" xmlns="http://www.w3.org/2000/svg">
<path d="M512 144C512 110.59 512 87.217 512 85C512 60.187 491.813 40 467 40H461V95C461 103.284 454.284 110 446 110C437.716 110 431 103.284 431 95C431 78.161 431 31.768 431 15C431 6.716 424.284 0 416 0C407.716 0 401 6.716 401 15V40H301V95C301 103.284 294.284 110 286 110C277.716 110 271 103.284 271 95C271 78.161 271 31.768 271 15C271 6.716 264.284 0 256 0C247.716 0 241 6.716 241 15V40H141V95C141 103.284 134.284 110 126 110C117.716 110 111 103.284 111 95C111 78.161 111 31.768 111 15C111 6.716 104.284 0 96 0C87.716 0 81 6.716 81 15V40H45C20.187 40 0 60.187 0 85V144H512Z" fill="#EE7838"/>
<path d="M0 174V417C0 441.813 20.187 462 45 462H467C491.813 462 512 441.813 512 417C512 410.575 512 270.188 512 174C502.665 174 5.164 174 0 174ZM144 382H112C103.716 382 97 375.284 97 367C97 358.716 103.716 352 112 352H144C152.284 352 159 358.716 159 367C159 375.284 152.284 382 144 382ZM144 318H112C103.716 318 97 311.284 97 303C97 294.716 103.716 288 112 288H144C152.284 288 159 294.716 159 303C159 311.284 152.284 318 144 318ZM144 254H112C103.716 254 97 247.284 97 239C97 230.716 103.716 224 112 224H144C152.284 224 159 230.716 159 239C159 247.284 152.284 254 144 254ZM272 382H240C231.716 382 225 375.284 225 367C225 358.716 231.716 352 240 352H272C280.284 352 287 358.716 287 367C287 375.284 280.284 382 272 382ZM272 318H240C231.716 318 225 311.284 225 303C225 294.716 231.716 288 240 288H272C280.284 288 287 294.716 287 303C287 311.284 280.284 318 272 318ZM272 254H240C231.716 254 225 247.284 225 239C225 230.716 231.716 224 240 224H272C280.284 224 287 230.716 287 239C287 247.284 280.284 254 272 254ZM400 382H368C359.716 382 353 375.284 353 367C353 358.716 359.716 352 368 352H400C408.284 352 415 358.716 415 367C415 375.284 408.284 382 400 382ZM400 318H368C359.716 318 353 311.284 353 303C353 294.716 359.716 288 368 288H400C408.284 288 415 294.716 415 303C415 311.284 408.284 318 400 318ZM400 254H368C359.716 254 353 247.284 353 239C353 230.716 359.716 224 368 224H400C408.284 224 415 230.716 415 239C415 247.284 408.284 254 400 254Z" fill="#EE7838"/>
</svg>
