<svg width="402" height="512" viewBox="0 0 402 512" fill="none" xmlns="http://www.w3.org/2000/svg">
<path d="M401.94 78.2799V512H0.0595703V77.8499H67.8196V112.75H34.6996V477.96H367.3V112.75H334.18V78.2799H401.94Z" fill="#EE7838"/>
<path d="M64.6992 142.75V447.96H337.299V142.75H64.6992ZM114.089 217.31H146.129V247.31H114.089V217.31ZM288.339 373.4H113.659V343.4H288.339V373.4ZM288.339 310.36H113.659V280.36H288.339V310.36Z" fill="#EE7838"/>
<path d="M304.179 43.931V112.761H97.8193V43.931H167.689C167.689 35.788 167.125 27.773 170.438 20.114C175.397 8.64796 186.853 0.524958 199.409 0.0509578C211.419 -0.643042 223.175 5.73796 229.439 15.951C234.862 24.791 234.309 33.995 234.309 43.931H304.179Z" fill="#EE7838"/>
</svg>
