<svg width="512" height="512" viewBox="0 0 512 512" fill="none" xmlns="http://www.w3.org/2000/svg">
<path d="M201.367 319H310.633L315.246 289H196.754L201.367 319Z" fill="#EE7838"/>
<path d="M256 186.777L217.641 230.617L186.684 223.543L192.137 259H319.863L325.316 223.543L294.359 230.617L256 186.777Z" fill="#EE7838"/>
<path d="M256 106C173.289 106 106 173.289 106 256C106 338.711 173.289 406 256 406C338.711 406 406 338.711 406 256C406 173.289 338.711 106 256 106ZM336.367 349H175.633L150.316 184.457L206.859 197.383L256 141.223L305.141 197.383L361.684 184.457L336.367 349Z" fill="#EE7838"/>
<path d="M512 256C512 238.625 505.895 221.789 494.988 208.461C499.965 191.977 499.16 174.086 492.512 158.031C485.863 141.98 473.781 128.762 458.605 120.621C456.895 103.488 449.305 87.2656 437.02 74.9805C424.73 62.6953 408.512 55.1055 391.379 53.3945C383.238 38.2188 370.02 26.1367 353.969 19.4844C337.914 12.8398 320.023 12.0352 303.539 17.0117C290.211 6.10547 273.375 0 256 0C238.625 0 221.789 6.10547 208.461 17.0117C191.977 12.0352 174.086 12.8398 158.031 19.4883C141.98 26.1367 128.762 38.2188 120.621 53.3945C103.488 55.1055 87.2656 62.6953 74.9805 74.9805C62.6953 87.2656 55.1055 103.488 53.3945 120.625C38.2188 128.762 26.1367 141.984 19.4883 158.035C12.8398 174.086 12.0352 191.977 17.0117 208.465C6.10547 221.789 0 238.625 0 256C0 273.375 6.10547 290.211 17.0117 303.539C12.0352 320.023 12.8398 337.914 19.4883 353.969C26.1367 370.02 38.2188 383.238 53.3945 391.379C55.1055 408.512 62.6953 424.734 74.9805 437.02C87.2656 449.305 103.488 456.895 120.621 458.605C128.762 473.781 141.98 485.863 158.031 492.516C174.086 499.16 191.977 499.965 208.461 494.992C221.789 505.895 238.625 512 256 512C273.375 512 290.211 505.895 303.539 494.988C320.023 499.965 337.914 499.16 353.969 492.512C370.02 485.863 383.238 473.781 391.379 458.605C408.512 456.895 424.734 449.305 437.02 437.02C449.305 424.734 456.895 408.512 458.605 391.375C473.781 383.238 485.863 370.016 492.512 353.965C499.16 337.914 499.965 320.023 494.988 303.535C505.895 290.211 512 273.375 512 256ZM256 436C156.746 436 76 355.254 76 256C76 156.746 156.746 76 256 76C355.254 76 436 156.746 436 256C436 355.254 355.254 436 256 436Z" fill="#EE7838"/>
</svg>
