<svg width="512" height="512" viewBox="0 0 512 512" fill="none" xmlns="http://www.w3.org/2000/svg">
<path d="M146.974 233.513C155.881 285.673 201.3 325.379 256 325.379C310.699 325.379 356.119 285.673 365.026 233.513H367.402C385.31 233.513 399.828 218.995 399.828 201.087C399.828 183.178 385.31 168.661 367.402 168.661H366.617V156.651C322.945 146.341 296.126 123.178 282.345 107.583C262.399 125.405 219.061 155.723 145.385 168.292L141.616 168.803C125.107 170.31 112.173 184.185 112.173 201.087C112.173 218.995 126.691 233.513 144.599 233.513H146.974Z" fill="black"/>
<path d="M145.384 137.834C235.5 121.056 271.647 75.955 272.012 75.488L285.788 57.849L296.867 77.295C297.691 78.7 317.48 111.602 366.616 125.656V110.615C366.616 49.524 317.092 0 256 0C194.909 0 145.384 49.524 145.384 110.616V137.834Z" fill="black"/>
<path d="M402.164 422H397.49C383.849 422 372.752 433.098 372.752 446.738V482H426.903V446.738C426.903 433.098 415.805 422 402.164 422Z" fill="black"/>
<path d="M112.173 482C123.219 482 132.173 473.046 132.173 462C132.173 450.954 123.219 442 112.173 442C101.127 442 92.1729 450.954 92.1729 462C92.1729 473.046 101.127 482 112.173 482Z" fill="black"/>
<path d="M291.995 350.683C280.329 353.773 268.234 355.379 256 355.379C243.767 355.379 231.672 353.774 220.006 350.683L256 401.163L291.995 350.683Z" fill="black"/>
<path d="M62.173 462C62.173 439.654 76.909 420.688 97.173 414.302V325.429L56.238 344.634C22.075 360.661 0 395.4 0 433.136V512H112.173C84.603 512 62.173 489.57 62.173 462Z" fill="black"/>
<path d="M455.762 344.633L414.827 325.428V393.494C438.922 399.225 456.903 420.914 456.903 446.738V512H512V433.136C512 395.4 489.925 360.661 455.762 344.633Z" fill="black"/>
<path d="M384.827 393.495V311.355L365.878 302.465C362.087 307.215 256 452.837 256 452.837C256 452.837 149.914 307.216 146.122 302.465L127.173 311.355V414.302C147.437 420.688 162.173 439.654 162.173 462C162.173 489.57 139.743 512 112.173 512H342.752V446.738C342.752 420.915 360.732 399.225 384.827 393.495Z" fill="black"/>
</svg>
