<svg width="512" height="512" viewBox="0 0 512 512" fill="none" xmlns="http://www.w3.org/2000/svg">
<path d="M67.048 186.392H15C6.716 186.392 0 193.108 0 201.392V512H67.048V186.392Z" fill="black"/>
<path d="M497 186.392H444.952V512H512V201.392C512 193.108 505.284 186.392 497 186.392Z" fill="black"/>
<path d="M282.084 411.772V512H229.916V411.772H282.084Z" fill="black"/>
<path d="M399.952 61.61H352.728V15C352.728 6.716 346.012 0 337.728 0H176.396C168.112 0 161.396 6.716 161.396 15V61.61H112.048C103.764 61.61 97.0479 68.326 97.0479 76.61V512H199.916V396.772C199.916 388.488 206.632 381.772 214.916 381.772H297.084C305.368 381.772 312.084 388.488 312.084 396.772V512H414.952V76.61C414.952 68.326 408.236 61.61 399.952 61.61ZM188.077 329.935H171.923C163.639 329.935 156.923 323.219 156.923 314.935C156.923 306.651 163.639 299.935 171.923 299.935H188.077C196.361 299.935 203.077 306.651 203.077 314.935C203.077 323.219 196.361 329.935 188.077 329.935ZM188.077 269.935H171.923C163.639 269.935 156.923 263.219 156.923 254.935C156.923 246.651 163.639 239.935 171.923 239.935H188.077C196.361 239.935 203.077 246.651 203.077 254.935C203.077 263.219 196.361 269.935 188.077 269.935ZM188.077 209.935H171.923C163.639 209.935 156.923 203.219 156.923 194.935C156.923 186.651 163.639 179.935 171.923 179.935H188.077C196.361 179.935 203.077 186.651 203.077 194.935C203.077 203.219 196.361 209.935 188.077 209.935ZM264.077 329.935H247.923C239.639 329.935 232.923 323.219 232.923 314.935C232.923 306.651 239.639 299.935 247.923 299.935H264.077C272.361 299.935 279.077 306.651 279.077 314.935C279.077 323.219 272.361 329.935 264.077 329.935ZM264.077 269.935H247.923C239.639 269.935 232.923 263.219 232.923 254.935C232.923 246.651 239.639 239.935 247.923 239.935H264.077C272.361 239.935 279.077 246.651 279.077 254.935C279.077 263.219 272.361 269.935 264.077 269.935ZM264.077 209.935H247.923C239.639 209.935 232.923 203.219 232.923 194.935C232.923 186.651 239.639 179.935 247.923 179.935H264.077C272.361 179.935 279.077 186.651 279.077 194.935C279.077 203.219 272.361 209.935 264.077 209.935ZM286.231 120.231H271V135.462C271 143.746 264.284 150.462 256 150.462C247.716 150.462 241 143.746 241 135.462V120.231H225.769C217.485 120.231 210.769 113.515 210.769 105.231C210.769 96.947 217.485 90.231 225.769 90.231H241V75C241 66.716 247.716 60 256 60C264.284 60 271 66.716 271 75V90.231H286.231C294.515 90.231 301.231 96.947 301.231 105.231C301.231 113.515 294.515 120.231 286.231 120.231ZM340.077 329.935H323.923C315.639 329.935 308.923 323.219 308.923 314.935C308.923 306.651 315.639 299.935 323.923 299.935H340.077C348.361 299.935 355.077 306.651 355.077 314.935C355.077 323.219 348.361 329.935 340.077 329.935ZM340.077 269.935H323.923C315.639 269.935 308.923 263.219 308.923 254.935C308.923 246.651 315.639 239.935 323.923 239.935H340.077C348.361 239.935 355.077 246.651 355.077 254.935C355.077 263.219 348.361 269.935 340.077 269.935ZM340.077 209.935H323.923C315.639 209.935 308.923 203.219 308.923 194.935C308.923 186.651 315.639 179.935 323.923 179.935H340.077C348.361 179.935 355.077 186.651 355.077 194.935C355.077 203.219 348.361 209.935 340.077 209.935Z" fill="black"/>
</svg>
