<svg width="352" height="512" viewBox="0 0 352 512" fill="none" xmlns="http://www.w3.org/2000/svg">
<path d="M188.02 337.626C193.818 337.626 198.562 332.882 198.562 327.083V322.181C198.562 316.383 193.818 311.638 188.02 311.638H11.9586C6.16017 311.638 1.41602 316.383 1.41602 322.181V327.083C1.41602 332.882 6.16017 337.626 11.9586 337.626H188.02Z" fill="black"/>
<path d="M298.558 120.291C282.007 103.739 262.766 90.7715 241.26 81.6522L241.154 81.5995C234.143 78.6476 226.026 81.1778 221.914 87.5561L209.685 106.585C206.627 105.531 203.36 104.899 199.986 104.635C198.984 104.582 197.93 104.53 196.876 104.53C194.03 104.53 191.236 104.846 188.547 105.426L210.107 71.7949L216.801 61.3578C221.492 54.0307 219.384 44.2261 212.004 39.5346L154.389 2.4775C151.753 0.790693 148.801 0 145.849 0C140.631 0 135.518 2.58293 132.513 7.27437L32.3058 163.515C27.6143 170.842 29.7229 180.647 37.1027 185.338L48.0142 192.349L43.0592 200.098L38.1042 207.847L34.9941 212.696C30.3027 220.023 32.4112 229.828 39.791 234.519L49.1739 240.528C56.501 245.22 66.3056 243.111 70.997 235.731L74.1071 230.882L79.0616 223.133L84.0166 215.384L94.77 222.29C97.4056 223.976 100.358 224.767 103.309 224.767C108.528 224.767 113.641 222.185 116.646 217.493L157.762 153.341C158.605 157.136 159.975 160.721 161.873 164.042C163.508 166.941 165.458 169.629 167.725 172.002C175.315 180.014 186.121 184.969 198.088 184.6C219.226 183.967 236.409 166.783 236.99 145.645C237.148 140.479 236.305 135.524 234.67 130.938C245.687 136.947 255.914 144.591 265.034 153.71C290.125 178.801 303.936 212.116 303.936 247.592C303.936 283.068 290.125 316.383 265.034 341.474C249.43 357.077 230.665 368.305 210.159 374.578C208.631 375.052 207.049 375.263 205.468 375.263H153.599C144.848 375.263 137.785 368.2 137.785 359.449V355.917H62.2472V375.262V400.248V427.079C63.8813 426.974 65.5681 426.92 67.2017 426.92H171.099H190.022H280.32H292.76H293.972C312 423.705 325.758 407.944 325.758 388.967C325.758 377.265 320.54 366.775 312.316 359.711C322.437 346.956 330.819 332.933 337.197 317.858C346.58 295.613 351.377 271.998 351.377 247.697C351.377 223.396 346.633 199.781 337.197 177.536C328.078 156.083 315.11 136.79 298.558 120.291ZM196.875 159.035C190.181 159.035 184.593 154.501 182.96 148.281C182.643 147.122 182.485 145.856 182.485 144.591C182.485 137.475 187.651 131.571 194.451 130.412C195.242 130.253 196.085 130.201 196.929 130.201C204.888 130.201 211.319 136.632 211.319 144.591C211.319 152.551 204.835 159.035 196.875 159.035ZM292.76 401.25C291.073 402.041 289.176 402.463 287.172 402.463C281.848 402.463 277.262 399.405 275.101 394.925C274.205 393.133 273.731 391.076 273.731 388.968C273.731 381.535 279.739 375.473 287.225 375.473C289.228 375.473 291.126 375.895 292.813 376.686C293.709 377.107 294.605 377.634 295.396 378.214C298.611 380.692 300.72 384.54 300.72 388.915C300.667 394.45 297.399 399.142 292.76 401.25Z" fill="black"/>
<path d="M62.2463 445.582C27.7721 448.112 0.625 476.893 0.625 512H276.946C285.696 512 292.76 504.936 292.76 496.186V470.831V445.424H67.2013C65.5145 445.424 63.8804 445.476 62.2463 445.582Z" fill="black"/>
</svg>
