<svg width="512" height="491" viewBox="0 0 512 491" fill="none" xmlns="http://www.w3.org/2000/svg">
<path d="M76.6719 77.1334C76.6719 76.7067 76.6719 76.0667 76.8852 75.64C86.2932 32.5467 124.736 0.333374 170.667 0.333374C216.811 0.333374 255.467 32.9734 264.661 76.28C264.661 76.4934 264.875 76.92 264.875 77.1334C264.661 77.1334 264.235 77.3467 264.021 77.3467C228.139 86.9467 204.843 47.9067 203.989 46.2C202.283 43.4267 199.509 41.5067 196.309 41.08C193.109 40.6534 189.909 41.5067 187.328 43.8534C142.037 85.88 81.5785 77.7734 76.6719 77.1334Z" fill="black"/>
<path d="M252.266 100.173C223.424 100.173 202.922 80.1201 192.661 67.3201C143.957 105.507 86.5063 99.9601 74.7517 98.4667C74.5383 101.667 74.7517 104.653 75.1783 107.64C80.9383 155.213 121.536 192.333 170.666 192.333C220.01 192.333 260.821 155 266.154 107C266.581 104.227 266.794 101.453 266.581 98.4667C261.674 99.7467 256.96 100.173 252.266 100.173Z" fill="black"/>
<path d="M261.333 235H80C35.84 235 0 270.84 0 315V389.667C0 398.413 7.25333 405.667 16 405.667H192.213C193.493 374.733 206.08 346.147 227.84 324.173L304.427 247.587C292.053 239.693 277.12 235 261.333 235Z" fill="black"/>
<path d="M432 213.667C410.603 213.667 390.528 222.008 375.446 237.112L258.112 354.445C243.008 369.528 234.667 389.624 234.667 411C234.667 455.117 270.571 491 314.667 491C336.064 491 356.139 482.659 371.243 467.555L488.555 350.243C503.659 335.139 512 315.043 512 293.667C512 249.549 476.096 213.667 432 213.667ZM341.056 437.389C334.016 444.451 324.651 448.333 314.667 448.333C294.08 448.333 277.334 431.587 277.334 411C277.334 401.037 281.216 391.651 288.278 384.611L331.862 341.027L384.662 393.827L341.056 437.389ZM458.39 320.056L414.806 363.64L362.027 310.861L405.632 267.256C412.651 260.216 422.016 256.333 432 256.333C452.587 256.333 469.334 273.08 469.334 293.667C469.334 303.629 465.451 313.016 458.39 320.056Z" fill="black"/>
</svg>
