<svg width="464" height="464" viewBox="0 0 464 464" fill="none" xmlns="http://www.w3.org/2000/svg">
<path d="M212.44 207.568C216.568 211.024 219.824 215.432 221.792 220.544L250.56 200H288V184H245.44L212.44 207.568Z" fill="black"/>
<path d="M318.84 240C336.784 240 354.568 245.928 368.92 256.696L384 268V232H332C316.56 232 304 219.44 304 204C304 202.632 304.216 201.32 304.408 200H288V246.128C297.776 242.224 308.16 240 318.84 240Z" fill="black"/>
<path d="M344.001 107.192L352.953 96H335.049L344.001 107.192Z" fill="black"/>
<path d="M333.281 119.408L317.017 99.08L324.337 128.352L333.281 119.408Z" fill="black"/>
<path d="M344 80C366.091 80 384 62.0914 384 40C384 17.9086 366.091 0 344 0C321.909 0 304 17.9086 304 40C304 62.0914 321.909 80 344 80Z" fill="black"/>
<path d="M370.977 99.088L354.721 119.408L363.665 128.352L370.977 99.088Z" fill="black"/>
<path d="M148 120H264C277.232 120 288 130.768 288 144V184H312V184.464C317.088 179.256 324.16 176 332 176H384V144H400V192H332C325.384 192 320 197.384 320 204C320 210.616 325.384 216 332 216H412C418.616 216 424 210.616 424 204V152C424 127.936 408.712 107.424 387.36 99.52L372.336 159.648L344 131.312L315.664 159.648L299.76 96H148C141.384 96 136 101.384 136 108C136 114.616 141.384 120 148 120Z" fill="black"/>
<path d="M73.0084 265.792L102.704 316.28C109.856 328.448 123.072 336 137.176 336H172C178.616 336 184 330.616 184 324C184 317.384 178.616 312 172 312H147.32C137.544 312 128.352 306.792 123.312 298.408L105.144 268.12L118.864 259.888L137.032 290.176C139.184 293.768 143.136 296 147.32 296H172C187.44 296 200 308.56 200 324C200 328.312 198.936 332.352 197.192 336H240H416C424.824 336 432 328.824 432 320C432 311.176 424.824 304 416 304H226.424H216H209.704L181.832 262.192C169.184 257.912 160 246.072 160 232C160 231.24 160.176 230.52 160.224 229.768L159.952 229.36C151.056 215.984 136.136 208 120.024 208C110.528 208 101.328 210.784 93.4163 216.048C82.7443 223.16 75.4724 234 72.9524 246.584C71.7684 252.48 71.6883 258.44 72.7123 264.296L73.0084 265.792Z" fill="black"/>
<path d="M160 400H304V432H160V400Z" fill="black"/>
<path d="M448 352H416H240H172H137.176H136.376V351.944C116.92 351.664 98.7845 341.184 88.8965 324.384L29.7765 223.88C26.9285 219.024 21.6405 216 15.9925 216C13.1605 216 10.3525 216.768 7.88048 218.208C0.288475 222.672 -2.26352 232.496 2.20048 240.104L61.3285 340.608C77.0725 367.376 106.136 384 137.176 384H448C456.824 384 464 376.824 464 368C464 359.176 456.824 352 448 352Z" fill="black"/>
<path d="M336 448H128C117.568 448 108.672 454.688 105.368 464H358.632C355.328 454.688 346.432 448 336 448Z" fill="black"/>
<path d="M192 248C200.837 248 208 240.837 208 232C208 223.163 200.837 216 192 216C183.163 216 176 223.163 176 232C176 240.837 183.163 248 192 248Z" fill="black"/>
<path d="M318.841 256C305.473 256 292.537 259.912 281.425 267.328L250.425 288H384.009L359.329 269.496C347.729 260.792 333.345 256 318.841 256Z" fill="black"/>
<path d="M120 192C142.056 192 160 174.056 160 152C160 146.464 158.816 141.016 156.624 136H148C133.944 136 122.384 125.552 120.408 112.032C120.272 112.032 120.136 112 120 112C97.944 112 80 129.944 80 152C80 174.056 97.944 192 120 192Z" fill="black"/>
</svg>
