<svg width="472" height="512" viewBox="0 0 472 512" fill="none" xmlns="http://www.w3.org/2000/svg">
<path d="M465.702 131.756C458.46 120.205 446.009 113.308 432.4 113.308H100.65C87.041 113.308 74.59 120.204 67.348 131.756C60.186 143.178 59.401 157.209 65.246 169.286C89.561 219.532 161.452 254.41 247.431 258.935V317.365L236.958 316.442C232.664 316.064 228.385 315.696 224.124 315.329C182.497 311.752 143.18 308.375 111.386 296.674C95.418 290.797 82.48 283.251 71.834 273.602C60.077 262.944 51.057 249.698 44.262 233.109C38.305 218.567 36.805 194.766 40.346 170.997C43.951 146.811 52.083 126.39 62.101 116.373L62.74 115.734L63.315 115.038C76.93 98.57 107.647 79.87 131.316 72.476C142.113 88.365 163.92 99.007 189.64 99.007C226.417 99.007 255.225 77.262 255.225 49.504C255.227 21.746 226.419 0 189.642 0C160.08 0 135.68 14.056 127.239 33.985C95.024 42.095 54.678 66.019 34.45 90.025C0.228966 125.142 -8.24003 205.681 8.92397 247.585C25.826 288.846 55.028 316.627 98.199 332.514C134.804 345.986 176.603 349.577 220.855 353.379C225.088 353.743 229.339 354.107 233.605 354.484L247.431 355.702V397.456L177.305 404.512C166.812 405.569 159.163 414.93 160.218 425.423C161.208 435.265 169.508 442.607 179.194 442.607C179.833 442.607 180.48 442.575 181.129 442.51L247.431 435.838V473.811H162.898C152.353 473.811 143.804 482.36 143.804 492.905C143.804 503.45 152.353 511.999 162.898 511.999H370.151C380.696 511.999 389.245 503.45 389.245 492.905C389.245 482.36 380.696 473.811 370.151 473.811H285.618V431.996L329.775 427.553C356.31 424.882 376.319 402.758 376.319 376.09C376.319 349.088 356.036 326.939 329.138 324.567L285.618 320.732V258.937C371.598 254.412 443.488 219.534 467.803 169.288C473.649 157.208 472.864 143.178 465.702 131.756ZM285.62 359.066L325.787 362.607C332.825 363.228 338.133 369.024 338.133 376.089C338.133 383.067 332.897 388.855 325.953 389.554L285.62 393.612V359.066Z" fill="black"/>
</svg>
