<svg id="Capa_1" enable-background="new 0 0 512 512" height="512" viewBox="0 0 512 512" width="512" xmlns="http://www.w3.org/2000/svg"><g><g><path d="m250.19 175.991-9.074-9.074c-35.056-35.056-92.095-35.055-127.15 0-31.262 31.262-34.62 79.995-10.123 115.041h-21.907c-4.142 0-7.5 3.358-7.5 7.5s3.358 7.5 7.5 7.5h34.921l124.494 124.494c2.437 2.437 5.638 3.655 8.839 3.655s6.402-1.218 8.839-3.655l35.337-35.337c2.929-2.929 2.929-7.678 0-10.606-2.929-2.929-7.678-2.929-10.606 0l-33.569 33.57-112.12-112.12h7.392c2.734 0 5.251-1.488 6.57-3.883l12.335-22.403 20.255 35.083c1.494 2.587 4.381 4.041 7.346 3.702 2.967-.339 5.451-2.406 6.322-5.263l19.732-64.673 19.732 64.673c.872 2.857 3.355 4.924 6.322 5.263 2.974.339 5.854-1.115 7.346-3.702l19.237-33.32 21.13 51.98c1.149 2.827 3.896 4.676 6.948 4.676 3.051 0 5.799-1.849 6.948-4.676l21.13-51.98 11.993 20.773c1.34 2.32 3.815 3.75 6.495 3.75h17.005l-53.802 53.802c-2.929 2.929-2.929 7.678 0 10.606 2.928 2.929 7.677 2.929 10.606 0l64.409-64.408h34.921c4.142 0 7.5-3.358 7.5-7.5s-3.358-7.5-7.5-7.5h-21.883c10.517-15.057 15.882-32.64 16.109-50.281 55.94-7.11 99.331-55.006 99.331-112.846 0-62.726-51.031-113.757-113.756-113.757s-113.757 51.031-113.757 113.757c0 9.906 1.276 19.52 3.667 28.688-10.667 4.453-20.47 10.977-28.889 19.397zm148.054-155.916c54.455 0 98.756 44.302 98.756 98.756s-44.302 98.756-98.756 98.756-98.756-44.302-98.756-98.756 44.301-98.756 98.756-98.756zm-105.322 141.725c16.922 41.326 57.482 70.557 104.776 70.781-.505 18.534-7.707 35.917-20.459 49.377h-27.604l-17.496-30.304c-1.432-2.48-4.15-3.929-7.01-3.732-2.858.197-5.354 2.004-6.433 4.658l-19.958 49.096-19.958-49.096c-1.079-2.654-3.575-4.461-6.433-4.658-2.855-.195-5.578 1.252-7.01 3.732l-18.274 31.652-21.868-71.674c-.962-3.156-3.874-5.312-7.173-5.312s-6.211 2.156-7.173 5.312l-21.868 71.674-18.274-31.652c-1.353-2.344-3.885-3.81-6.571-3.75-2.707.027-5.188 1.511-6.494 3.882l-16.612 30.171h-17.888c-13.23-13.966-20.509-32.151-20.509-51.466 0-20.009 7.792-38.82 21.94-52.968s32.959-21.94 52.968-21.94 38.82 7.792 52.969 21.94l14.377 14.377c2.929 2.929 7.678 2.929 10.606 0l14.377-14.377c6.747-6.745 14.56-12.028 23.052-15.723z"/><path d="m398.244 205.163c19.559 0 38.718-6.727 53.947-18.94 14.99-12.022 25.664-28.891 30.056-47.5.952-4.031-1.545-8.071-5.577-9.022-4.026-.95-8.071 1.544-9.022 5.577-7.627 32.316-36.167 54.886-69.404 54.886-39.333 0-71.332-31.999-71.332-71.332s31.999-71.332 71.332-71.332c33.305 0 62.611 23.591 69.684 56.095.881 4.047 4.876 6.614 8.923 5.734 4.047-.881 6.614-4.876 5.734-8.923-4.125-18.956-14.717-36.184-29.827-48.51-15.333-12.508-34.693-19.396-54.514-19.396-47.604 0-86.332 38.728-86.332 86.332s38.728 86.331 86.332 86.331z"/><path d="m361.857 150.193c4.142 0 7.5-3.358 7.5-7.5v-47.723c0-4.142-3.358-7.5-7.5-7.5h-12.649c-4.142 0-7.5 3.358-7.5 7.5s3.358 7.5 7.5 7.5h5.149v40.224c0 4.141 3.358 7.499 7.5 7.499z"/><path d="m394.849 150.193c4.142 0 7.5-3.358 7.5-7.5v-47.723c0-4.142-3.358-7.5-7.5-7.5h-12.649c-4.142 0-7.5 3.358-7.5 7.5s3.358 7.5 7.5 7.5h5.149v40.224c0 4.141 3.358 7.499 7.5 7.499z"/><path d="m432.334 87.47c-12.376 0-22.445 10.069-22.445 22.445v17.833c0 12.376 10.069 22.445 22.445 22.445s22.445-10.069 22.445-22.445v-17.833c0-12.376-10.069-22.445-22.445-22.445zm7.445 40.278c0 4.105-3.34 7.445-7.445 7.445s-7.445-3.34-7.445-7.445v-17.833c0-4.105 3.34-7.445 7.445-7.445s7.445 3.34 7.445 7.445z"/><path d="m487.875 249.209h-15.741c-6.738 0-12.341 5.473-12.49 12.2-1.215 54.966-23.627 106.484-63.106 145.064-39.42 38.522-91.36 59.715-146.319 59.715-.175 0-.358 0-.533 0-114.927-.287-208.661-94.02-208.947-208.947-.121-48.566 16.841-95.983 47.762-133.515 2.634-3.197 2.177-7.924-1.02-10.558s-7.924-2.177-10.558 1.02c-33.137 40.222-51.314 91.039-51.185 143.09.307 123.157 100.753 223.603 223.91 223.91h.572c30.041 0 59.237-5.922 86.244-17.189l3.365 10.319c-28.049 11.55-58.364 17.607-89.612 17.607-62.828 0-121.896-24.467-166.322-68.893-44.428-44.427-68.895-103.494-68.895-166.323s24.467-121.897 68.894-166.323c42.543-42.543 98.856-66.909 158.822-68.777v10.744c-51.752 1.72-101.598 21.488-140.616 55.819-3.11 2.736-3.413 7.475-.677 10.585 2.737 3.11 7.477 3.414 10.585.677 36.989-32.545 84.403-51.066 133.508-52.152 6.727-.149 12.199-5.752 12.199-12.49v-15.74c0-3.387-1.333-6.559-3.754-8.93-2.424-2.375-5.618-3.642-9.023-3.574-64.799 1.332-125.759 27.34-171.651 73.232-47.26 47.259-73.287 110.094-73.287 176.929s26.027 129.67 73.287 176.929c47.259 47.26 110.094 73.287 176.929 73.287s129.67-26.027 176.929-73.287c45.892-45.892 71.9-106.853 73.233-171.652.069-3.395-1.2-6.6-3.575-9.024-2.371-2.42-5.542-3.753-8.928-3.753zm-71.336 173.823c-18.667 18.667-39.927 33.795-62.957 45.08l-3.388-10.39c20.672-10.326 39.838-23.918 56.828-40.521 14.692-14.357 27.166-30.394 37.261-47.672l10.492 3.422c-10.33 18.126-23.13 34.975-38.236 50.081zm45.343-63.54-10.36-3.378c14.05-28.341 21.984-59.539 23.05-91.904h10.744c-1.044 33.487-9.11 65.833-23.434 95.282z"/></g></g></svg>