<svg width="471" height="471" viewBox="0 0 471 471" fill="none" xmlns="http://www.w3.org/2000/svg">
<path fill-rule="evenodd" clip-rule="evenodd" d="M285.429 34.4939C283.667 35.9574 282.308 38.4432 282.308 41.5237C282.308 68.095 260.767 89.6355 234.195 89.6355C207.624 89.6355 186.083 68.095 186.083 41.5237C186.083 38.4432 184.724 35.9574 182.961 34.4939C181.317 33.129 179.412 32.6567 177.268 33.2626C160.771 37.9267 145.1 44.5699 130.528 52.9232C129.067 53.7601 128.313 55.0083 128.163 56.648C128.001 58.4269 128.618 60.5769 130.362 62.3213C149.151 81.11 149.151 111.573 130.362 130.362C111.573 149.151 81.1108 149.151 62.3219 130.362C60.5774 128.617 58.4275 128 56.6485 128.162C55.0086 128.312 53.7604 129.067 52.9235 130.527C44.5702 145.1 37.9268 160.77 33.2627 177.268C32.6566 179.411 33.1291 181.317 34.4938 182.961C35.9575 184.723 38.4432 186.083 41.5238 186.083C68.0951 186.083 89.6356 207.624 89.6356 234.195C89.6356 260.765 68.0951 282.308 41.5238 282.308C38.443 282.308 35.9571 283.667 34.4936 285.429C33.1291 287.071 32.6566 288.979 33.2625 291.12C38.4654 309.525 46.1316 326.901 55.8871 342.869C56.7464 344.277 57.9989 345.004 59.6272 345.132C61.3872 345.269 63.4958 344.644 65.2048 342.935C84.5531 323.586 115.923 323.586 135.271 342.935C155.036 362.698 154.547 394.89 134.192 414.047C133.362 414.828 133.144 415.722 133.202 416.36C133.23 416.667 133.316 416.853 133.374 416.945C133.413 417.004 133.506 417.141 133.819 417.314C147.451 424.804 162.006 430.813 177.269 435.127C179.412 435.733 181.317 435.261 182.961 433.896C184.723 432.432 186.083 429.947 186.083 426.867C186.083 418.03 193.246 410.867 202.084 410.867C210.92 410.867 218.084 418.03 218.084 426.867C218.084 451.594 195.442 473.518 168.564 465.919C150.939 460.938 134.138 454 118.411 445.36C96.9834 433.589 96.3466 405.721 112.261 390.743C119.47 383.961 119.643 372.561 112.644 365.561C105.792 358.711 94.6837 358.711 87.8323 365.561C71.4182 381.975 42.1378 381.747 28.5791 359.551C17.3279 341.132 8.47759 321.079 2.46932 299.827C-5.12925 272.949 16.795 250.308 41.5238 250.308C50.4221 250.308 57.6356 243.093 57.6356 234.195C57.6356 225.296 50.4221 218.084 41.5238 218.084C16.7944 218.084 -5.12902 195.44 2.46949 168.563C7.85551 149.512 15.5253 131.423 25.1611 114.613C38.343 91.6169 68.2681 91.0531 84.9493 107.734C91.2413 114.026 101.443 114.026 107.735 107.734C114.027 101.442 114.027 91.2408 107.735 84.9488C91.0538 68.2676 91.6177 38.3425 114.614 25.1608C131.424 15.525 149.512 7.85521 168.563 2.46946C195.44 -5.12905 218.084 16.7943 218.084 41.5237C218.084 50.422 225.296 57.6355 234.195 57.6355C243.093 57.6355 250.308 50.422 250.308 41.5237C250.308 16.7943 272.949 -5.12905 299.827 2.46946C318.877 7.85521 336.966 15.525 353.776 25.1608C376.772 38.3425 377.337 68.2676 360.654 84.9488C354.363 91.2408 354.363 101.442 360.654 107.734C366.948 114.026 377.149 114.026 383.44 107.734C400.121 91.0531 430.047 91.6169 443.229 114.613C452.865 131.423 460.535 149.512 465.919 168.563C473.518 195.44 451.596 218.084 426.867 218.084C421.552 218.084 416.84 220.637 413.879 224.654C408.637 231.769 398.621 233.284 391.507 228.042C384.394 222.798 382.877 212.782 388.121 205.67C396.853 193.821 410.958 186.083 426.867 186.083C429.947 186.083 432.432 184.723 433.896 182.961C435.261 181.317 435.733 179.411 435.127 177.268C430.463 160.77 423.82 145.1 415.466 130.527C414.63 129.067 413.382 128.312 411.741 128.162C409.962 128 407.812 128.617 406.069 130.362C387.278 149.151 356.816 149.151 338.028 130.362C319.238 111.573 319.238 81.11 338.028 62.3211C339.771 60.5769 340.39 58.4269 340.228 56.648C340.076 55.0083 339.323 53.7601 337.862 52.9232C323.289 44.5699 307.62 37.9267 291.12 33.2626C288.979 32.6567 287.073 33.129 285.429 34.4939Z" fill="black"/>
<path fill-rule="evenodd" clip-rule="evenodd" d="M160.644 200.919C173.67 194.048 178.66 177.918 171.789 164.891C167.666 157.075 170.66 147.397 178.476 143.275C186.291 139.152 195.97 142.146 200.093 149.961C215.21 178.62 204.232 214.107 175.574 229.222C167.758 233.346 158.08 230.352 153.957 222.536C149.834 214.719 152.828 205.043 160.644 200.919Z" fill="black"/>
<path fill-rule="evenodd" clip-rule="evenodd" d="M331.666 246.333C311.048 246.333 294.333 263.048 294.333 283.667V294.333H283.666C263.048 294.333 246.333 311.048 246.333 331.667V385C246.333 405.619 263.048 422.333 283.666 422.333H294.333V433C294.333 453.619 311.048 470.333 331.666 470.333H385C405.618 470.333 422.333 453.619 422.333 433V422.333H433C453.618 422.333 470.333 405.619 470.333 385V331.667C470.333 311.048 453.618 294.333 433 294.333H422.333V283.667C422.333 263.048 405.618 246.333 385 246.333H331.666Z" fill="black"/>
</svg>
