<svg width="512" height="512" viewBox="0 0 512 512" fill="none" xmlns="http://www.w3.org/2000/svg">
<path d="M45 271C56.5156 271 68.0312 266.648 76 259.516C91.9375 273.785 120.062 273.785 136 259.516C151.938 273.785 180.062 273.785 196 259.516C211.938 273.785 240.062 273.785 256 259.516C271.938 273.785 300.062 273.785 316 259.516C331.938 273.785 360.062 273.785 376 259.516C391.938 273.785 420.062 273.785 436 259.516C443.969 266.648 455.484 271 467 271C491.812 271 512 250.812 512 226V191.453L491.273 150H20.7266L0 191.453V226C0 250.812 20.1875 271 45 271Z" fill="black"/>
<path d="M331 30C331 13.4609 317.539 0 301 0H271V60H301C317.539 60 331 46.5391 331 30Z" fill="black"/>
<path d="M241 60V0H211C194.461 0 181 13.4609 181 30C181 46.5391 194.461 60 211 60H241Z" fill="black"/>
<path d="M30 0V120H482V0H352.656C357.824 8.85938 361 19.0234 361 30C361 63.0898 334.09 90 301 90H211C177.91 90 151 63.0898 151 30C151 19.0234 154.176 8.85938 159.344 0H30Z" fill="black"/>
<path d="M241 361H121V512H241V361ZM181 451H151V391H181V451Z" fill="black"/>
<path d="M331 361H391V421H331V361Z" fill="black"/>
<path d="M91 331H271V512H512V482H482V299.48C477.152 300.473 472.137 301 467 301C456.426 301 445.082 298.773 435.59 294.555C426.465 298.262 416.414 300.211 406 300.211C395.426 300.211 385.23 298.203 376 294.379C366.77 298.203 356.574 300.211 346 300.211C335.426 300.211 325.23 298.203 316 294.379C306.77 298.203 296.574 300.211 286 300.211C275.426 300.211 265.23 298.203 256 294.379C246.77 298.203 236.574 300.211 226 300.211C215.426 300.211 205.23 298.203 196 294.379C186.77 298.203 176.574 300.211 166 300.211C155.426 300.211 145.23 298.203 136 294.379C126.77 298.203 116.574 300.211 106 300.211C95.5859 300.211 85.5352 298.262 76.4102 294.555C66.918 298.773 55.5742 301 45 301C39.8633 301 34.8477 300.473 30 299.48V482H0V512H91V331ZM301 331H421V451H301V331Z" fill="black"/>
</svg>
